<svg width="700pt" height="700pt" viewBox="0 0 700 700" xmlns="http://www.w3.org/2000/svg">
  <path d="M1.2 509.6H198.8a78.404 78.404 0 0 1-78.403-78.403v-302.4A78.404 78.404 0 0 1 198.8 50.394h302.4a78.404 78.404 0 0 1 78.403 78.403v302.4A78.404 78.404 0 0 1 501.2 509.6zM349.57 364H350.672c8.96 0 44.238-27.211 61.918-52.938h.003a111.225 111.225 0 0 0 21.395-65.738c0-22.961-12.145-47.957-46.238-49.281-.687 0-1.39-.04-2.082-.04-18.406 0-31.406 9.415-35.672 25.82-4.257-16.405-17.246-25.82-35.656-25.82-.695 0-1.394 0-2.078.04-34.12 1.34-46.277 26.32-46.277 49.281h-.004a111.322 111.322 0 0 0 21.398 65.738 189.174 189.174 0 0 0 33.98 35.879C333.86 357.308 344.816 364 349.281 364z" style="fill:#f00"/>
</svg>
