<?xml version="1.0" standalone="no"?>
<!DOCTYPE svg PUBLIC "-//W3C//DTD SVG 20010904//EN"
 "http://www.w3.org/TR/2001/REC-SVG-20010904/DTD/svg10.dtd">
<svg version="1.0" xmlns="http://www.w3.org/2000/svg"
 width="460.000000pt" height="460.000000pt" viewBox="0 0 460.000000 460.000000"
 preserveAspectRatio="xMidYMid meet">
<metadata>
Created by potrace 1.14, written by Peter Selinger 2001-2017
</metadata>
<g transform="translate(0.000000,460.000000) scale(0.100000,-0.100000)"
fill="#000000" stroke="none">
<path d="M630 4580 c-259 -54 -466 -226 -568 -471 -62 -150 -60 -76 -59 -1811
0 -1484 1 -1589 18 -1671 61 -302 304 -545 609 -607 81 -17 194 -18 1668 -18
1322 0 1594 3 1656 14 298 57 536 277 619 573 21 76 21 76 23 1681 1 1753 3
1691 -57 1836 -97 232 -282 396 -525 465 l-79 23 -1610 2 c-1509 1 -1615 0
-1695 -16z m1461 -1466 c24 -9 62 -30 84 -46 44 -32 115 -129 115 -159 0 -30
18 -22 25 10 9 41 65 116 111 150 68 50 127 65 244 64 80 -1 119 -6 164 -22
145 -52 233 -145 283 -300 18 -57 24 -223 11 -314 -24 -175 -106 -373 -219
-527 -76 -105 -276 -305 -389 -389 -86 -65 -190 -121 -223 -121 -75 0 -333
196 -494 375 -175 194 -263 353 -313 565 -104 444 93 752 471 735 48 -2 105
-11 130 -21z"/>
</g>
</svg>
